<svg xmlns="http://www.w3.org/2000/svg" width="1375.9" height="287" style="overflow:visible;enable-background:new 0 0 1375.9 287" xml:space="preserve">
    <path fill='#ff6600' d="M246.9 166.4c-4.9-3.3-8.6-7.4-11.3-12.5-2.6-5.1-3.8-10.6-3.6-16.4.2-5.9 2.1-11.5 5.8-17l1.7-2.6L255 94.5c6.2-9.3 9.5-19 10.1-29.1.6-10.1-1.6-19.8-6.6-29-4.9-9.3-12.6-17.3-23.1-24.3C225 5.2 214.5 1.2 204 .3c-10.5-1-20.3.8-29.4 5.3-9.1 4.5-16.7 11.4-22.8 20.7l-49.3 74.6 24.4 16.1L176 42.5c3.6-5.5 8.1-9.5 13.3-12.1 5.2-2.5 10.7-3.6 16.4-3.2 5.7.4 11 2.2 15.8 5.4 4.9 3.3 8.7 7.4 11.4 12.5 2.6 5.1 3.8 10.6 3.6 16.4-.2 5.9-2.1 11.5-5.8 17l-17.2 26c-6.2 9.3-9.5 19-10.1 29.1-.6 10.1 1.6 19.8 6.6 29 4.9 9.3 12.6 17.3 23.1 24.3 0 0 .1 0 .1.1l24.4 16.1 81.2-122.9-24.4-16.1-67.5 102.3zM354 122c-7.4 1.2-14.1 4.2-20 8.8-5.9 4.6-10.3 10.6-13.1 18.1-2.1 5.3-2.9 10.9-2.4 16.6.5 5.7 2 11.2 4.7 16.4-5.5 2.1-10.3 5.1-14.5 9-4.2 3.9-7.4 8.6-9.5 14.1-2.9 7.6-3.7 15.1-2.5 22.8 1.3 7.6 4.3 14.4 9.1 20.5 4.8 6 11 10.5 18.5 13.4l65.8 25.4 9.5-24.6-62.5-24.1c-3-1.2-5.5-2.9-7.4-5.3-1.9-2.4-3.1-5.1-3.6-8.1s-.1-6 1-9c1.2-3 2.9-5.5 5.3-7.4 2.4-1.9 5.1-3.2 8.2-3.7 3.1-.5 6.1-.2 9.1.9l55.8 21.5 9.5-24.6-57-22c-2.7-1.1-5-2.7-6.7-5-1.8-2.3-2.9-4.8-3.4-7.6s-.2-5.6.9-8.3c1.1-2.9 2.8-5.2 5-6.9 2.2-1.8 4.8-2.9 7.6-3.4s5.6-.2 8.3.9l63.7 24.6 9.5-24.6-66.8-25.8c-7.3-3.1-14.6-3.9-22.1-2.6zM1202 218.3c1.2-4.6 1.1-4.7-3.6-5.9-11.6-2.8-22.9-6.3-33.4-12.5-3.3-2-24.5-14.1-32.3-23.2-12.9-15.3-14-27.3-4.7-43.3 6.1-10.6 18.8-15.8 30.8-13.1 8.2 1.9 15.4 5.7 21.5 11.3 7 6.5 11.2 14.3 10.8 24.2-.2 4.4-1.4 8.5-3.2 12.5-1.3 2.8-.7 4.5 2.2 5.9 3.1 1.5 6 3.3 8.9 4.9 2 1.1 4.1 2.3 6.1 3.4 7.7 4.3 7 4.5 10.2-3.3 5.5-13.4 5.9-27.1 1.3-40.5-10.6-31-45-50.3-74.3-45.8-22.1 3.4-40.9 18.7-46.9 41.4-5.2 19.4.2 36.5 12.7 51.7 9.2 11.3 20.7 19.5 33.9 25.5 1.1.5 3 .8 2.8 2.3-.2 1.5-2.1 1.3-3.2 1.4-15.9 2.3-30.9 7.7-45.1 14.9-11.9 6-22.7 13.5-32.5 22.5-3.6 3.3-3.5 4.2 0 7.5 3.3 3 6.5 6.1 9.7 9.1 6.9 6.6 6.8 6.5 14.1.7 30.9-24.1 65.3-36.6 104.9-31.3 2.6.3 3.9-.4 4.6-3 1.4-5.6 3.1-11.4 4.7-17.3zM1261.8 118.5c1.7-2.3 4-3.9 6.7-5l63.6-24.8-9.6-24.6-66.7 26c-7.3 2.8-13.3 7.2-17.9 13.2-4.7 5.9-7.6 12.6-8.9 20-1.2 7.4-.4 14.8 2.5 22.2 2.1 5.3 5.2 10 9.5 13.9 4.2 3.9 9.1 6.9 14.5 9-2.6 5.2-4.2 10.7-4.6 16.4-.5 5.7.4 11.3 2.5 16.8 2.9 7.6 7.5 13.7 13.5 18.5 6.1 4.8 12.9 7.8 20.5 9 7.6 1.2 15.2.4 22.7-2.6l65.7-25.7-9.6-24.6-62.4 24.4c-3 1.2-6 1.5-9 1.1-3-.5-5.7-1.7-8.1-3.6-2.4-1.9-4.2-4.4-5.4-7.4-1.2-3-1.5-6-1.1-9 .5-3 1.6-5.8 3.5-8.2 1.9-2.5 4.3-4.3 7.3-5.4l55.7-21.8-9.6-24.6-56.9 22.2c-2.7 1.1-5.5 1.4-8.3.9-2.8-.5-5.3-1.6-7.6-3.3-2.3-1.7-3.9-4-5-6.7-1.1-2.9-1.4-5.7-1-8.5.7-3 1.8-5.5 3.5-7.8zM73.5 118.4C33 118.4 0 151.3 0 191.8s33 73.5 73.5 73.5 73.5-33 73.5-73.5-33-73.4-73.5-73.4zm0 117.9C49 236.3 29 216.4 29 191.8s19.9-44.5 44.5-44.5 44.5 19.9 44.5 44.5-20 44.5-44.5 44.5zM851.8 136.4c-40.5 0-73.5 33-73.5 73.5s33 73.5 73.5 73.5 73.5-33 73.5-73.5-32.9-73.5-73.5-73.5zm0 117.9c-24.5 0-44.5-19.9-44.5-44.5s19.9-44.5 44.5-44.5c24.5 0 44.5 19.9 44.5 44.5s-19.9 44.5-44.5 44.5zM1039 139.9c2.4 7.2 2.9 14.2 1.5 20.8-1.4 6.6-4.4 12.4-8.8 17.3s-9.9 8.4-16.2 10.6c-6.5 2.2-13.1 2.7-19.5 1.4-6.5-1.2-12.4-4-17.6-8.4-5.2-4.4-9-10.2-11.5-17.4l-25.2-75.1-28.9 9.7 25.3 75.4c3.9 11.7 10.2 21.4 18.5 28.7 8.4 7.3 18.4 12.1 29.8 14 11.4 2 23.9.7 37.1-3.7 13.2-4.4 23.9-11 31.9-19.5s13.2-18.3 15.4-29.2c2.2-10.9 1.4-22.4-2.5-34.1L1043 55l-29.2 9.8 25.2 75.1zM758.1 124c-5.4-8.7-13.5-16.1-24.1-22.2-10.6-6-21.2-9.2-31.5-9.5h-2.7l38.2-67-22.7-12.9h-.1C698 42.6 659.3 53.2 629 36l-11.4 20c21.7 12.4 46.5 14.2 68.7 7.2l-32.9 57.7-34.7 60.8L642 195l34.5-60.6c3.3-5.9 7.7-10.3 12.9-13.3s10.8-4.4 16.7-4.4c5.9 0 11.5 1.6 16.6 4.5 5.3 3 9.5 7.1 12.5 12.1s4.7 10.6 4.8 16.6c.2 6-1.4 12-4.8 17.9l-34.5 60.6 23 13.1 34.7-60.8c5.4-9.4 8.1-19.2 8-29-.2-9.7-3-19-8.3-27.7zM477.2 207.7c21.1-13.5 35.9-35.4 40.6-60.1l.5-2.5L597 271l24.8-15.5L511.6 79.1l-24.8 15.5c19.3 31.9 9.6 73.6-21.6 93.8l12 19.3z"/>
</svg>
