<svg xmlns="http://www.w3.org/2000/svg" width="236.3" height="203.3" style="overflow:visible;enable-background:new 0 0 236.3 203.3" xml:space="preserve">
    <path d="M144.4 166.4c-4.9-3.3-8.6-7.4-11.3-12.5-2.6-5.1-3.8-10.6-3.6-16.4.2-5.9 2.1-11.5 5.8-17l1.7-2.6 15.5-23.4c6.2-9.3 9.5-19 10.1-29.1.6-10.1-1.6-19.8-6.6-29-4.9-9.3-12.6-17.3-23.1-24.3-10.5-6.9-21-10.9-31.5-11.8C91-.7 81.2 1 72.1 5.5c-9 4.5-16.6 11.4-22.8 20.7L0 100.8l24.4 16.1 49.2-74.3c3.6-5.5 8.1-9.5 13.3-12.1 5.2-2.5 10.7-3.6 16.4-3.2 5.7.4 11 2.2 15.8 5.4 4.9 3.3 8.7 7.4 11.4 12.5 2.6 5.1 3.8 10.6 3.6 16.4-.2 5.9-2.1 11.5-5.8 17l-17.2 26c-6.2 9.3-9.5 19-10.1 29.1-.6 10.1 1.6 19.8 6.6 29 4.9 9.3 12.6 17.3 23.1 24.3 0 0 .1 0 .1.1l24.4 16.1 81.2-122.9L212 64.2l-67.6 102.2z"/>
</svg>
