<svg xmlns="http://www.w3.org/2000/svg" width="146.8" height="165.6" style="overflow:visible;enable-background:new 0 0 146.8 165.6" xml:space="preserve">
    <path d="M57.9.6c-7.4 1.2-14.1 4.2-20 8.8C32 14 27.6 20 24.7 27.4c-2.1 5.3-2.9 10.9-2.4 16.6.5 5.7 2 11.2 4.7 16.4-5.5 2.1-10.3 5.1-14.5 9C8.3 73.3 5.1 78 3 83.5.1 91.1-.7 98.6.5 106.3c1.3 7.6 4.3 14.4 9.1 20.5 4.8 6 11 10.5 18.5 13.4L94 165.6l9.5-24.6L41 116.9c-3-1.2-5.5-2.9-7.4-5.3-1.9-2.4-3.1-5.1-3.6-8.1s-.1-6 1-9c1.2-3 2.9-5.5 5.3-7.4 2.4-1.9 5.1-3.2 8.2-3.7 3.1-.5 6.1-.2 9.1.9l55.8 21.5 9.5-24.6-57-22c-2.7-1.1-5-2.7-6.7-5-1.8-2.3-2.9-4.8-3.4-7.6s-.2-5.6.9-8.3c1.1-2.9 2.8-5.2 5-6.9 2.2-1.8 4.8-2.9 7.6-3.4s5.6-.2 8.3.9l63.7 24.6 9.5-24.6L80 2.9C72.7.1 65.3-.7 57.9.6z"/>
</svg>
