<svg xmlns="http://www.w3.org/2000/svg" width="159.3" height="162.8" style="overflow:visible;enable-background:new 0 0 159.3 162.8" xml:space="preserve">
    <path d="M126.2 84.9c2.4 7.2 2.9 14.2 1.5 20.8-1.4 6.6-4.4 12.4-8.8 17.3s-9.9 8.4-16.2 10.6c-6.5 2.2-13.1 2.7-19.5 1.4-6.5-1.2-12.4-4-17.6-8.4-5.2-4.4-9-10.2-11.5-17.4L28.9 34 0 43.7l25.3 75.4c3.9 11.7 10.2 21.4 18.5 28.7 8.4 7.3 18.4 12.1 29.8 14 11.4 2 23.9.7 37.1-3.7 13.2-4.4 23.9-11 31.9-19.5s13.2-18.3 15.4-29.2c2.2-10.9 1.4-22.4-2.5-34.1L130.2 0 101 9.8l25.2 75.1z"/>
</svg>
