<svg xmlns="http://www.w3.org/2000/svg" width="158.7" height="182.2" style="overflow:visible;enable-background:new 0 0 158.7 182.2" xml:space="preserve">
    <path d="M140.9 126.1c1.2-4.6 1.1-4.7-3.6-5.9-11.6-2.8-22.9-6.3-33.4-12.5-3.3-2-24.5-14.1-32.3-23.2-12.9-15.3-14-27.3-4.7-43.3C73 30.6 85.7 25.4 97.7 28.1c8.2 1.9 15.4 5.7 21.5 11.3 7 6.5 11.2 14.3 10.8 24.2-.2 4.4-1.4 8.5-3.2 12.5-1.3 2.8-.7 4.5 2.2 5.9 3.1 1.5 6 3.3 8.9 4.9 2 1.1 4.1 2.3 6.1 3.4 7.7 4.3 7 4.5 10.2-3.3 5.5-13.4 5.9-27.1 1.3-40.5-10.6-31-45-50.3-74.3-45.8C59.1 4 40.4 19.3 34.3 42.1c-5.2 19.4.2 36.5 12.7 51.7 9.2 11.3 20.7 19.5 33.9 25.5 1.1.5 3 .8 2.8 2.3-.2 1.5-2.1 1.3-3.2 1.4-15.9 2.3-30.9 7.7-45.1 14.9-11.9 6-22.7 13.5-32.5 22.5-3.6 3.3-3.5 4.2 0 7.5 3.3 3 6.5 6.1 9.7 9.1 6.9 6.6 6.8 6.5 14.1.7 30.9-24.1 65.3-36.6 104.9-31.3 2.6.3 3.9-.4 4.6-3 1.4-5.6 3.1-11.5 4.7-17.3z"/>
</svg>
