<svg xmlns="http://www.w3.org/2000/svg" width="147.4" height="165.5" style="overflow:visible;enable-background:new 0 0 147.4 165.5" xml:space="preserve">
    <path d="M33.3 54.4c1.7-2.3 4-3.9 6.7-5l63.6-24.8L94 0 27.3 26C20 28.9 14.1 33.3 9.4 39.2c-4.7 5.9-7.6 12.6-8.9 20C-.7 66.6.1 74 3 81.4c2.1 5.3 5.2 10 9.5 13.9 4.2 3.9 9.1 6.9 14.5 9-2.6 5.2-4.2 10.7-4.6 16.4-.5 5.7.4 11.3 2.5 16.8 2.9 7.6 7.5 13.7 13.5 18.5 6.1 4.8 12.9 7.8 20.5 9 7.6 1.2 15.2.4 22.7-2.6l65.7-25.7-9.6-24.6-62.4 24.4c-3 1.2-6 1.5-9 1.1-3-.5-5.7-1.7-8.1-3.6-2.4-1.9-4.2-4.4-5.4-7.4-1.2-3-1.5-6-1.1-9 .5-3 1.6-5.8 3.5-8.2 1.9-2.5 4.3-4.3 7.3-5.4l55.7-21.8-9.6-24.6-56.7 22.1c-2.7 1.1-5.5 1.4-8.3.9-2.8-.5-5.3-1.6-7.6-3.3-2.3-1.7-3.9-4-5-6.7-1.1-2.9-1.4-5.7-1-8.5.5-2.9 1.6-5.4 3.3-7.7z"/>
</svg>
