<svg xmlns="http://www.w3.org/2000/svg" width="62.6" height="61" style="overflow:visible;enable-background:new 0 0 62.6 61" xml:space="preserve">
    <path d="M32.3 20.5V0c1.2.6 2.3 1.3 3.4 1.8.8.4 1.1.9 1.1 1.8-.1 1.6 0 3.1 0 4.7 0 .4.1.6.5.8 3.1 1.7 6.1 3.4 9.2 5.1.6.3.8.6.7 1.3-.1 1 0 2 0 3 0 .5-.2.8-.6 1.1-1.6.9-3.3 1.8-4.9 2.7-.2.1-.4.3-.4.4 0 .2.2.4.4.5 1.7 1 3.4 1.9 5.1 2.8.4.2.5.5.5.9v3.4c0 .5-.1.7-.5 1-2.1 1.1-4.2 2.3-6.3 3.5-1.1.6-2.2 1.2-3.2 1.8-.2.1-.4.5-.4.8-.1.9 0 1.8 0 2.8 0 .2-.1.5-.3.6-1.3.7-2.7 1.5-4.1 2.2 0-.3-.1-.5-.1-.7V23.6c0-.4.2-.6.5-.8 3.3-1.8 6.5-3.5 9.7-5.3.1-.1.4-.2.4-.3 0-.2-.2-.3-.3-.4-1.7-1-3.4-1.9-5.1-2.8-.5-.3-.7-.1-.6.4V18c0 .2-.1.5-.2.6-1.7.4-3.1 1.1-4.5 1.9M36.7 32c.2 0 .3 0 .3-.1 1.9-1 3.8-2.1 5.6-3.1.1-.1.3-.2.2-.3 0-.1-.2-.3-.3-.4-1.7-.9-3.3-1.8-5-2.7-.8-.4-.9-.4-.9.5v3.6c.1.8.1 1.6.1 2.5M29.8 0v20.4c-1-.5-1.8-1.1-2.7-1.4-1.4-.5-1.9-1.4-1.6-2.8.1-.7 0-1.4 0-2.1 0-.6-.3-.8-.8-.5-1.6.9-3.3 1.8-4.9 2.7-.6.3-.6.6 0 .9 3.1 1.7 6.2 3.4 9.3 5 .5.3.8.6.8 1.2v19.2c-.2-.1-.4-.1-.5-.2-1.2-.6-2.3-1.2-3.5-1.9-.2-.1-.4-.4-.4-.7V37c0-.3-.2-.7-.5-.8-3.1-1.7-6.1-3.4-9.2-5.1-.8-.1-1-.4-1-1.1.1-1 0-2.1 0-3.1 0-.5.1-.7.6-1 1.6-.8 3.1-1.7 4.7-2.6.1 0 .1 0 .2-.1.2-.2.4-.4.7-.6-.2-.2-.4-.4-.7-.6-1.5-.9-3.1-1.7-4.6-2.5-.5-.3-.7-.6-.7-1.1v-3c0-.5.2-.9.6-1.1 3-1.7 6-3.3 9.1-5 .6-.3.9-.7.8-1.4V3.1c0-.6.2-.9.7-1.1 1-.5 1.9-1 2.9-1.5.1-.2.3-.3.7-.5m-4.5 25c-.2 0-.3 0-.3.1l-5.4 3c-.5.3-.5.5 0 .8 1.7 1 3.5 1.9 5.2 2.9.1.1.3.1.5.2v-7zM51 52.1h-1.7v-1.7c-.2-.1-.5-.4-.6-.5.7-1 1.4-2 2-3 .1-.1.3-.2.4-.2.4 0 .7.1 1.2.2-.1.3-.2.5-.3.8h3.3c0 .4.1.7.1 1 .1 0 .1 0 .2.1.4-.7.7-1.4 1.1-2.1.4.1.9.2 1.4.3-.1.3-.2.5-.3.8h4.5v1.5h-2.5c.1.3.2.5.3.8-.2.1-.5.2-.9.4.4 0 .7.1 1 .1v3c.8.2.8.2.9-1.6.4.1.7.3 1.1.4.1 0 .1.1.2.1.4.7-.3 2.4-1.1 2.5h-.4c-1.8.1-2-.1-2-1.9v-1.3h-2.3c0 .2 0 .4-.1.7.3-.2.6-.3.9-.5.4.6.9 1.1 1.3 1.7-.4.3-.7.5-1 .8-.4-.5-.8-1.1-1.2-1.6l-.9 1.8c.2.1.4.1.6.2v.8h6.1v1.4h-4.5c1.4 1.1 3 1.6 4.8 1.9-.3.5-.6 1-.8 1.6-2-.5-3.9-1.4-5.5-2.8v3h-1.7V58c-.5.4-.9.8-1.4 1-1.1.6-2.3 1-3.4 1.6-.4.2-.6 0-.8-.3-.2-.3-.4-.7-.6-1 1.7-.4 3.3-.8 4.8-1.9h-4.4v-1.5h5.7c0-.1.1-.1.1-.2-.3-.4-.7-.8-1.1-1.2l.3-.3-4.8 1.2-.3-1.5c.8-.1 1.5-.2 2.3-.4v-1.4zm3.4 0h-1c-.9 0-1 .1-.7 1.1.5-.1 1-.2 1.6-.4 0 .3.1.6.1 1.1 1-1 .8-2.1.8-3.2.2 0 .4-.1.5-.1-.3-.4-.7-.7-1-1.2h-1.1c.2.4.3.6.4.9-.5.1-.9.2-1.4.3-.2-.4-.4-.8-.6-1.1-.3-.4-.7-.4-1-.1-.4.4-.7.8-1.1 1.3h4.5v1.4zm4.4-1.5c-.4-.5-.3-1.3-1.2-1.3-.6 0-1.1.4-1.4 1.3h2.6zM28.1 50.8l2.1.7c-.2.5-.5.9-.7 1.4-.7-.3-1.3-.5-2.1-.8v1c0 .4 0 .7.5.8.5 0 .7-.2.7-.7 0-.1 0-.1.1-.2.3.1.7.2 1 .4.1.1.3.4.2.5-.1.4-.3.9-.6 1-1 .1-2 .1-3 0-.1 0-.3-.4-.3-.6v-1.5h-1.3c-.1 0-.3.2-.3.3-.1 1-.6 1.8-1.5 2.4.3 0 .4.1.6.1 1.5 0 3.1-.1 4.6 0 .4 0 .8.4 1.2.6-.8.9-1.4 1.7-2.2 2.6 1.1.3 2.1.5 3.1.7-.2.5-.4.9-.7 1.5-1.1-.4-2.1-.7-3.2-1.1-.5-.2-.8-.2-1.3 0-.9.4-1.8.7-2.7 1.1-.2-.5-.4-1-.6-1.4.8-.3 1.7-.5 2.7-.8-.6-.5-1.1-.8-1.6-1.2.3-.3.5-.5.8-.7h-1.4c0-.5.1-1 .1-1.5.1 0 .2-.1.3-.1-.3-.2-.5-.5-.9-.8-.1.3-.1.4-.2.6h-3.1c-.1.3-.1.7-.2 1h3.7c-.2 1.3-.3 2.5-.5 3.7-.1.6-.6.8-1.1.9h-.9c-1.5 0-1.5 0-1.8-1.5.6 0 1.2.1 1.7.1.6.1.8-.2.9-.8 0-.2 0-.4.1-.6.1-.4-.1-.6-.5-.6h-3.2l.6-3.6h3v-1h-.7c-.9 0-1.8-.1-2.8-.1-.1-.3-.4-.7-.6-1.1.9-.3 1.8-.7 2.8-1.1-.7-.6-1.3-1.1-1.9-1.6.4-.3.7-.5 1.1-.8 0 0 .2.1.5.2 0-.4.1-.7.1-1.1h3.5c1.1-.1 2.1-.2 2.7 1.1l.4.4c.4-.5.8-.9 1.3-1.4.4.2.8.5 1.2.7-.5.5-.9 1-1.4 1.4.6.7.7.7 1.3.1.3-.3.6-.7 1-1 .4.2.7.5 1.3.8-.8.7-1.3 1.1-1.9 1.6m-4.9-2c-1 .9-2 1.8-3.1 2.8h1.6v2.8c1.3-.7 1.4-1.8 1.5-3h3c-1.1-.9-2-1.7-3-2.6m1.1 8.1c1.2 1.4 1.5 1.4 2.5 0h-2.5zm-4.2-7.1c.5-.4.9-.8 1.4-1.2h-2.8c.5.5 1 .8 1.4 1.2M40.5 51.1H37v-1.3h3c.3 0 .7.1.6-.4 0-.5-.3-.4-.6-.4h-2.2v-1.2h2.8v-.9h1.5v.9h3.3v2h1v1.3h-1v2H42v.8h3.6v1.2h-3.5v.9h4.1v1.4h-4.1v1.2h-1.5l-.1-.1c0-1.1 0-1.1-1.1-1.1h-2.3v-1.3h3.4v-.8h-2.9c0-.4 0-.8-.1-1.2h3v-.8h-2.7v-1.2h2.1c.5-.1.7-.4.6-1m1.6-1.3h1.5c.1 0 .3-.2.3-.3 0-.2-.2-.4-.3-.4-.3-.1-.6 0-.9 0-.6-.1-.8 0-.6.7m0 1.3c-.2.6 0 .8.5.8h.7c.6.1.7-.3.5-.8h-1.7z"/>
    <path d="M35.2 49.1h-2.6v-1.5h3.5c.5 0 1 .9.7 1.3-.5 1-.9 1.9-1.4 3h1.7c-.1 1.8-.3 3.4-1 4.9-.2.5-.1.8.3 1.1 1.1.8 2.3 1.1 3.6 1.1h6.4c-.1.4-.2 1-.4 1.6-2.7 0-5.4.3-8-.3-.5-.1-1.1-.3-1.6-.6-.5-.2-.9-.6-1.3-.9-.6.7-1.2 1.4-1.9 2.2-.4-.5-.7-.9-1.1-1.4.5-.5 1-1.1 1.5-1.6.3-.3.4-.6.1-1.1-.4-.6-.7-1.3-1.1-2.1.5-.2.9-.5 1.3-.7.3.6.5 1.2.8 1.7h.2c.2-.8.4-1.6.6-2.5H33c.8-1.4 1.5-2.8 2.2-4.2M3.7 60.9H2v-7.6c-.4.5-.8 1-1.1 1.4-.4-.6-.6-1.2-.9-1.7 1.6-1.8 2.7-3.8 3.3-6.2.5.1 1 .2 1.7.4-.3.8-.7 1.6-.9 2.4-.2.6-.4 1.3-.4 1.9-.1 3.1 0 6.2 0 9.4M4.5 58h9.6v1.7H4.5zM5.2 48.8h8.1v1.7H5.2z"/>
</svg>
