<svg xmlns="http://www.w3.org/2000/svg" width="158" height="31.7" style="overflow:visible;enable-background:new 0 0 158 31.7" xml:space="preserve">
    <path d="M142.4 19c-.1-.5-.2-.5-.7-.4-1.3.4-2.7.7-4.1.6-.4 0-3.3 0-4.6-.5-2.2-.8-3-2-2.9-4.1 0-1.4 1-2.7 2.4-3.1.9-.3 1.9-.3 2.8-.1 1.1.3 1.9.8 2.5 1.8.2.5.3.9.4 1.5 0 .4.2.5.6.5h2c1 0 1 .1.9-.9-.2-1.7-.9-3.1-2.2-4.2-2.8-2.6-7.4-2.6-10.2-.4-2.1 1.6-3.1 4.2-2.4 6.9.6 2.3 2.1 3.7 4.2 4.5 1.6.6 3.2.8 4.9.7.1 0 .3-.1.4.1.1.2-.1.2-.2.3-1.5 1.1-2.7 2.5-3.7 4.1-.9 1.3-1.5 2.7-2 4.1-.2.5-.1.6.4.8.5.1 1 .2 1.5.4 1.1.3 1.1.3 1.5-.7 1.8-4.2 4.6-7.4 8.9-9.1.3-.1.4-.3.3-.6-.3-.8-.5-1.5-.7-2.2zM37.2 22.5c-.7 0-1.3-.2-1.9-.5-.6-.3-1-.8-1.4-1.4-.4-.6-.5-1.3-.5-2V15c0-1.3-.3-2.5-.9-3.5-.6-1-1.4-1.8-2.5-2.4-1.1-.6-2.3-.9-3.8-.9s-2.7.3-3.8.9c-1.1.6-1.9 1.4-2.5 2.4-.6 1-.9 2.2-.9 3.5v10.4h3.4V15c0-.8.2-1.4.5-2 .3-.6.8-1 1.4-1.4.6-.3 1.2-.5 1.9-.5s1.3.2 1.9.5c.6.3 1 .8 1.4 1.4.4.6.5 1.3.5 2v3.6c0 1.3.3 2.5.9 3.5.6 1 1.4 1.8 2.5 2.4 1.1.6 2.3.9 3.8.9h3.4V8.2h-3.4v14.3zM45.3 8.9c-.8.4-1.4 1-1.8 1.8-.4.8-.7 1.6-.7 2.5 0 .7.1 1.3.4 1.9.3.6.7 1.1 1.2 1.6-.5.5-.9 1-1.2 1.6-.3.6-.4 1.2-.4 1.9 0 .9.2 1.8.7 2.6.5.8 1.1 1.4 1.8 1.8.8.5 1.6.7 2.6.7h8.2v-3.1h-7.8c-.4 0-.7-.1-1-.3-.3-.2-.6-.4-.7-.7-.2-.3-.3-.7-.3-1 0-.4.1-.7.3-1 .2-.3.4-.6.7-.7.3-.2.7-.3 1-.3h7v-3.1h-7.1c-.3 0-.7-.1-.9-.3-.3-.2-.5-.4-.7-.7-.2-.3-.3-.6-.3-.9 0-.4.1-.7.3-1 .2-.3.4-.5.7-.7.3-.2.6-.3.9-.3h8v-3h-8.4c-.9 0-1.7.2-2.5.7zM149.1 11.6c.3-.2.6-.3.9-.3h8V8.2h-8.4c-.9 0-1.8.2-2.5.7-.8.4-1.4 1-1.8 1.8-.4.8-.7 1.6-.7 2.5 0 .7.1 1.3.4 1.9.3.6.7 1.1 1.2 1.6-.5.5-.9 1-1.2 1.6-.3.6-.4 1.2-.4 1.9 0 .9.2 1.8.7 2.6.5.8 1.1 1.4 1.8 1.8.8.5 1.6.7 2.6.7h8.2v-3.1h-7.8c-.4 0-.7-.1-1-.3-.3-.2-.6-.4-.7-.7-.2-.3-.3-.7-.3-1 0-.4.1-.7.3-1 .2-.3.4-.6.7-.7.3-.2.7-.3 1-.3h7v-3.1H150c-.3 0-.7-.1-.9-.3-.3-.2-.5-.4-.7-.7-.2-.3-.3-.6-.3-.9 0-.4.1-.7.3-1 .2-.2.4-.5.7-.6zM8.6 8.2C3.8 8.2 0 12.1 0 16.8s3.8 8.6 8.6 8.6c4.7 0 8.6-3.8 8.6-8.6s-3.9-8.6-8.6-8.6zm0 13.8c-2.9 0-5.2-2.3-5.2-5.2s2.3-5.2 5.2-5.2 5.2 2.3 5.2 5.2S11.4 22 8.6 22zM98.2 8.2c-4.7 0-8.6 3.8-8.6 8.6s3.8 8.6 8.6 8.6c4.7 0 8.6-3.8 8.6-8.6s-3.9-8.6-8.6-8.6zm0 13.8c-2.9 0-5.2-2.3-5.2-5.2s2.3-5.2 5.2-5.2c2.9 0 5.2 2.3 5.2 5.2s-2.3 5.2-5.2 5.2zM121 17.8c0 .9-.2 1.7-.6 2.3-.4.7-.9 1.2-1.6 1.6-.7.4-1.4.6-2.1.6-.8 0-1.5-.2-2.2-.6-.7-.4-1.2-.9-1.6-1.6-.4-.7-.6-1.4-.6-2.3V8.7h-3.5v9.1c0 1.4.3 2.7 1 3.8.6 1.1 1.6 2 2.7 2.6 1.2.6 2.6 1 4.2 1s3-.3 4.2-1c1.2-.6 2.1-1.5 2.7-2.6.6-1.1 1-2.4 1-3.8V8.7H121v9.1zM84 9.9c-1.2-.6-2.6-1-4.2-1s-3 .3-4.2 1c-.1.1-.2.1-.3.2V0h-3.4c0 4.5-3.7 8.2-8.2 8.2v3c3.2 0 6.2-1.4 8.2-3.6v17.7h3.5v-9.1c0-.9.2-1.7.6-2.3.4-.7.9-1.2 1.6-1.6.7-.4 1.4-.6 2.2-.6.8 0 1.5.2 2.2.6.7.4 1.2.9 1.6 1.6.4.7.6 1.5.6 2.3v9.1h3.4v-9.1c0-1.4-.3-2.7-1-3.8-.6-1-1.5-1.9-2.6-2.5z"/>
</svg>
