<!-- Generator: Adobe Illustrator 25.0.0, SVG Export Plug-In  -->
<svg version="1.1" xmlns="http://www.w3.org/2000/svg" xmlns:xlink="http://www.w3.org/1999/xlink" x="0px" y="0px" width="12.1px"
	 height="12.6px" viewBox="0 0 12.1 12.6" style="overflow:visible;enable-background:new 0 0 12.1 12.6;" xml:space="preserve">
<defs>
</defs>
<g>
	<path d="M6.4,0.4v11.7c0,0.2-0.2,0.4-0.4,0.4s-0.4-0.2-0.4-0.4V0.4C5.7,0.2,5.9,0,6.1,0S6.4,0.2,6.4,0.4z"/>
	<path d="M12.1,6.5c0,0.1,0,0.2-0.1,0.3l-5.7,5.7c-0.1,0.1-0.2,0.1-0.3,0.1s-0.2,0-0.3-0.1L0.1,6.8C0,6.6,0,6.4,0.1,6.2
		c0.1-0.1,0.4-0.1,0.5,0l5.4,5.4l5.4-5.4c0.1-0.1,0.4-0.1,0.5,0C12.1,6.3,12.1,6.4,12.1,6.5z"/>
</g>
</svg>
