<!-- Generator: Adobe Illustrator 25.0.0, SVG Export Plug-In  -->
<svg version="1.1" xmlns="http://www.w3.org/2000/svg" xmlns:xlink="http://www.w3.org/1999/xlink" x="0px" y="0px" width="111.8px"
	 height="11.5px" viewBox="0 0 111.8 11.5" style="overflow:visible;enable-background:new 0 0 111.8 11.5;" xml:space="preserve">
<defs>
</defs>
<path d="M1,10.6c-0.7-0.5-1-1.3-1-2.2V8c0-0.1,0.1-0.2,0.2-0.2h0.8c0.1,0,0.2,0.1,0.2,0.2v0.4c0,0.6,0.3,1.1,0.8,1.5
	c0.5,0.4,1.2,0.6,2.1,0.6c0.8,0,1.4-0.2,1.9-0.5c0.4-0.3,0.6-0.8,0.6-1.4c0-0.4-0.1-0.7-0.3-1C6,7.3,5.7,7.1,5.3,6.8
	C4.9,6.6,4.3,6.3,3.6,6C2.8,5.7,2.1,5.4,1.7,5.2C1.3,5,0.9,4.6,0.6,4.3C0.4,3.9,0.2,3.4,0.2,2.8c0-0.9,0.3-1.6,0.9-2.1
	C1.8,0.2,2.6,0,3.7,0c1.2,0,2.1,0.3,2.8,0.8c0.7,0.6,1,1.3,1,2.2v0.4c0,0.1-0.1,0.2-0.2,0.2H6.6c-0.1,0-0.2-0.1-0.2-0.2V3.1
	c0-0.6-0.2-1.1-0.7-1.5C5.2,1.2,4.5,1,3.7,1C2.9,1,2.3,1.1,1.9,1.5C1.5,1.8,1.3,2.2,1.3,2.8c0,0.4,0.1,0.7,0.3,1
	C1.8,4,2.1,4.2,2.5,4.4c0.4,0.2,0.9,0.4,1.7,0.7C5,5.5,5.6,5.8,6.1,6s0.9,0.6,1.2,1c0.3,0.4,0.4,0.9,0.4,1.5c0,0.9-0.3,1.6-1,2.1
	c-0.7,0.5-1.6,0.8-2.8,0.8C2.7,11.5,1.7,11.2,1,10.6z"/>
<path d="M12.4,11c-0.6-0.3-1-0.7-1.3-1.2c-0.3-0.5-0.5-1.2-0.5-1.9V3.5c0-0.7,0.2-1.3,0.5-1.8c0.3-0.5,0.8-0.9,1.3-1.2
	C13,0.1,13.6,0,14.4,0c0.7,0,1.4,0.1,2,0.4c0.6,0.3,1,0.7,1.3,1.2c0.3,0.5,0.5,1.1,0.5,1.8c0,0.1,0,0.1,0,0.1s-0.1,0-0.1,0l-0.8,0
	c-0.1,0-0.2,0-0.2-0.1v0c0-0.8-0.2-1.4-0.7-1.8C15.8,1.2,15.2,1,14.4,1S13,1.2,12.5,1.7c-0.5,0.5-0.7,1.1-0.7,1.8V8
	c0,0.7,0.2,1.3,0.7,1.8s1.1,0.7,1.9,0.7s1.4-0.2,1.9-0.7C16.8,9.3,17,8.7,17,8v0c0-0.1,0.1-0.1,0.2-0.1l0.8,0c0.1,0,0.2,0,0.2,0.1
	c0,0.7-0.2,1.3-0.5,1.8c-0.3,0.5-0.8,0.9-1.3,1.2s-1.2,0.4-2,0.4C13.6,11.5,13,11.3,12.4,11z"/>
<path d="M28,11.2l-2.4-5c0,0,0,0-0.1,0h-2.7c0,0-0.1,0-0.1,0.1v4.9c0,0.1-0.1,0.2-0.2,0.2h-0.8c-0.1,0-0.2-0.1-0.2-0.2V0.3
	c0-0.1,0.1-0.2,0.2-0.2H26c0.9,0,1.7,0.3,2.2,0.9C28.7,1.6,29,2.3,29,3.2c0,0.7-0.2,1.4-0.6,1.9c-0.4,0.5-1,0.9-1.6,1
	c0,0-0.1,0,0,0.1l2.4,4.9c0,0,0,0,0,0.1c0,0.1,0,0.1-0.1,0.1h-0.8C28.1,11.3,28,11.3,28,11.2z M22.8,1.2v4c0,0,0,0.1,0.1,0.1h3
	c0.6,0,1.1-0.2,1.5-0.6c0.4-0.4,0.6-0.9,0.6-1.5c0-0.6-0.2-1.1-0.6-1.5c-0.4-0.4-0.9-0.6-1.5-0.6L22.8,1.2
	C22.8,1.1,22.8,1.1,22.8,1.2z"/>
<path d="M33.9,11c-0.6-0.3-1-0.7-1.3-1.3C32.2,9.1,32,8.5,32,7.7v-4c0-0.7,0.2-1.4,0.5-1.9c0.3-0.6,0.8-1,1.3-1.3
	c0.6-0.3,1.2-0.5,2-0.5s1.4,0.2,2,0.5c0.6,0.3,1,0.7,1.3,1.3c0.3,0.6,0.5,1.2,0.5,1.9v4c0,0.7-0.2,1.4-0.5,1.9
	c-0.3,0.6-0.8,1-1.3,1.3s-1.3,0.5-2,0.5S34.4,11.3,33.9,11z M37.8,9.7c0.5-0.5,0.7-1.1,0.7-2V3.7c0-0.8-0.2-1.5-0.7-2
	c-0.5-0.5-1.1-0.7-2-0.7c-0.8,0-1.4,0.2-1.9,0.7c-0.5,0.5-0.7,1.1-0.7,2v4.1c0,0.8,0.2,1.5,0.7,2c0.5,0.5,1.1,0.7,1.9,0.7
	C36.7,10.5,37.3,10.2,37.8,9.7z"/>
<path d="M43.3,11.2V0.3c0-0.1,0.1-0.2,0.2-0.2h0.8c0.1,0,0.2,0.1,0.2,0.2v10c0,0,0,0.1,0.1,0.1h5.6c0.1,0,0.2,0.1,0.2,0.2v0.7
	c0,0.1-0.1,0.2-0.2,0.2h-6.7C43.4,11.3,43.3,11.3,43.3,11.2z"/>
<path d="M53.4,11.2V0.3c0-0.1,0.1-0.2,0.2-0.2h0.8c0.1,0,0.2,0.1,0.2,0.2v10c0,0,0,0.1,0.1,0.1h5.6c0.1,0,0.2,0.1,0.2,0.2v0.7
	c0,0.1-0.1,0.2-0.2,0.2h-6.7C53.4,11.3,53.4,11.3,53.4,11.2z"/>
<path d="M67.6,11.2V0.3c0-0.1,0.1-0.2,0.2-0.2h3.8c1.1,0,1.9,0.3,2.5,0.8S75,2.3,75,3.2v5c0,0.9-0.3,1.7-0.9,2.3s-1.5,0.8-2.5,0.8
	h-3.8C67.6,11.3,67.6,11.3,67.6,11.2z M68.8,10.3h2.8c0.7,0,1.2-0.2,1.7-0.6c0.4-0.4,0.6-0.9,0.6-1.6V3.4c0-0.7-0.2-1.2-0.6-1.6
	c-0.4-0.4-1-0.6-1.7-0.6h-2.8c0,0-0.1,0-0.1,0.1L68.8,10.3C68.7,10.3,68.7,10.3,68.8,10.3z"/>
<path d="M79.8,11c-0.6-0.3-1-0.7-1.3-1.3C78.2,9.1,78,8.5,78,7.7v-4c0-0.7,0.2-1.4,0.5-1.9c0.3-0.6,0.8-1,1.3-1.3
	c0.6-0.3,1.2-0.5,2-0.5c0.8,0,1.4,0.2,2,0.5c0.6,0.3,1,0.7,1.3,1.3c0.3,0.6,0.5,1.2,0.5,1.9v4c0,0.7-0.2,1.4-0.5,1.9
	c-0.3,0.6-0.8,1-1.3,1.3s-1.3,0.5-2,0.5C81.1,11.5,80.4,11.3,79.8,11z M83.8,9.7c0.5-0.5,0.7-1.1,0.7-2V3.7c0-0.8-0.2-1.5-0.7-2
	c-0.5-0.5-1.1-0.7-2-0.7c-0.8,0-1.4,0.2-1.9,0.7c-0.5,0.5-0.7,1.1-0.7,2v4.1c0,0.8,0.2,1.5,0.7,2c0.5,0.5,1.1,0.7,1.9,0.7
	C82.7,10.5,83.3,10.2,83.8,9.7z"/>
<path d="M91.2,11.2L88.1,0.3l0,0c0-0.1,0.1-0.1,0.2-0.1h0.8c0.1,0,0.2,0,0.2,0.1L91.7,9c0,0,0,0,0,0s0,0,0,0l2.3-8.8
	c0-0.1,0.1-0.1,0.2-0.1h0.9c0.1,0,0.2,0,0.2,0.1L97.6,9c0,0,0,0,0,0c0,0,0,0,0,0l2.4-8.8c0-0.1,0.1-0.1,0.2-0.1h0.8
	c0.1,0,0.1,0,0.1,0c0,0,0,0.1,0,0.1l-3,10.9c0,0.1-0.1,0.1-0.2,0.1h-0.8c-0.1,0-0.2,0-0.2-0.1l-2.3-9c0,0,0,0,0,0s0,0,0,0l-2.3,9
	c0,0.1-0.1,0.1-0.2,0.1h-0.8C91.3,11.3,91.2,11.3,91.2,11.2z"/>
<path d="M110.8,0.1h0.8c0.1,0,0.2,0.1,0.2,0.2v10.9c0,0.1-0.1,0.2-0.2,0.2h-0.8c-0.1,0-0.1,0-0.2-0.1l-5.5-8.9c0,0,0,0,0,0
	c0,0,0,0,0,0.1l0,8.8c0,0.1-0.1,0.2-0.2,0.2h-0.8c-0.1,0-0.2-0.1-0.2-0.2V0.3c0-0.1,0.1-0.2,0.2-0.2h0.8c0.1,0,0.1,0,0.2,0.1
	l5.5,8.9c0,0,0,0,0,0s0,0,0-0.1l0-8.8C110.6,0.2,110.7,0.1,110.8,0.1z"/>
</svg>
