<svg xmlns="http://www.w3.org/2000/svg" width="101.8" height="30.5" style="overflow:visible;enable-background:new 0 0 101.8 30.5" xml:space="preserve">
    <path style="fill-rule:evenodd;clip-rule:evenodd;fill-opacity:0" fill="none" d="M0 1h101.8v30.5H0z" transform="translate(0 -1)"/>
    <path d="M99.2 7.8c-1.6-1.6-3.8-2.6-6.3-2.6-2.4 0-4.7 1-6.3 2.6C85 9.4 84 11.6 84 14.1c0 2.4 1 4.7 2.6 6.3 1.6 1.6 3.8 2.6 6.3 2.6 2.4 0 4.7-1 6.3-2.6 1.6-1.6 2.6-3.8 2.6-6.3 0-2.4-1-4.7-2.6-6.3m-2 10.5c-1.1 1.1-2.6 1.8-4.2 1.8-1.7 0-3.1-.7-4.2-1.8S87 15.7 87 14.1c0-1.7.7-3.1 1.8-4.2s2.6-1.8 4.2-1.8c1.7 0 3.1.7 4.2 1.8s1.8 2.6 1.8 4.2c-.1 1.7-.7 3.2-1.8 4.2zM86.5 4.5c.2-.1.2-.3.1-.4l-1.3-2c-.1-.1-.2-.1-.3 0-1.9 1.2-6.5 5.1-6.5 12v8.1c0 .1.1.3.3.3h2.3c.2 0 .3-.1.3-.3V14c0-5.8 4.2-8.9 5.1-9.5zM73.7 7.8c-1.6-1.6-3.8-2.6-6.3-2.6-2.4 0-4.7 1-6.3 2.6-1.6 1.6-2.6 3.8-2.6 6.3 0 2.4 1 4.7 2.6 6.3C62.8 22 65 23 67.4 23s4.7-1 6.3-2.6c1.6-1.6 2.6-3.8 2.6-6.3 0-2.4-1-4.7-2.6-6.3zm-2 10.5c-1.1 1.1-2.6 1.8-4.2 1.8-1.7 0-3.1-.7-4.2-1.8s-1.8-2.6-1.8-4.2c0-1.7.7-3.1 1.8-4.2s2.6-1.8 4.2-1.8c1.7 0 3.1.7 4.2 1.8s1.8 2.6 1.8 4.2c-.1 1.7-.7 3.2-1.8 4.2zM54.1 7.8c-1.6-1.6-3.8-2.6-6.3-2.6-2.4 0-4.7 1-6.3 2.6C40 9.4 39 11.7 39 14.1s1 4.7 2.6 6.3c1.6 1.6 3.8 2.6 6.3 2.6 2.3 0 4.4-.9 6-2.3v.8c0 1.7-.7 3.1-1.8 4.2s-2.6 1.8-4.2 1.8-3-.6-4-1.6c-.1-.1-.2-.1-.3 0l-1.7 1.7c-.1.1-.1.3 0 .3 1.6 1.5 3.7 2.4 6.1 2.4 2.4 0 4.7-1 6.3-2.6 1.6-1.6 2.6-3.8 2.6-6.3V14c-.2-2.3-1.2-4.6-2.8-6.2zm-.2 6.3v.6c-.1 1.4-.8 2.7-1.7 3.6-1.1 1.1-2.6 1.8-4.2 1.8-1.7 0-3.1-.7-4.2-1.8S42 15.7 42 14.1c0-1.7.7-3.1 1.8-4.2s2.6-1.8 4.2-1.8c1.7 0 3.1.7 4.2 1.8 1 1.1 1.7 2.5 1.7 4.2zM34.6 7.8c-1.6-1.6-3.8-2.6-6.3-2.6-2.4 0-4.7 1-6.3 2.6-1.6 1.6-2.6 3.8-2.6 6.3 0 2.4 1 4.7 2.6 6.3 1.6 1.6 3.8 2.6 6.3 2.6 2.4 0 4.7-1 6.3-2.6 1.6-1.6 2.6-3.8 2.6-6.3 0-2.4-1-4.7-2.6-6.3zm-2 10.5c-1.1 1.1-2.6 1.8-4.2 1.8-1.7 0-3.1-.7-4.2-1.8s-1.8-2.6-1.8-4.2c0-1.7.7-3.1 1.8-4.2s2.6-1.8 4.2-1.8c1.7 0 3.1.7 4.2 1.8s1.8 2.6 1.8 4.2c-.1 1.7-.7 3.2-1.8 4.2zM15.1 7.8c-1.6-1.6-3.8-2.6-6.3-2.6-2.4 0-4.7 1-6.3 2.6C1 9.4 0 11.7 0 14.1s1 4.7 2.6 6.3C4.2 22 6.4 23 8.9 23c2.3 0 4.4-.9 6-2.3v.8c0 1.7-.7 3.1-1.8 4.2s-2.6 1.8-4.2 1.8-3-.6-4-1.6c-.1-.1-.2-.1-.3 0l-1.7 1.7c-.1.1-.1.3 0 .3 1.6 1.5 3.7 2.4 6.1 2.4 2.4 0 4.7-1 6.3-2.6 1.6-1.6 2.6-3.8 2.6-6.3V14c-.2-2.3-1.2-4.6-2.8-6.2zm-.2 6.3v.6c-.1 1.4-.8 2.7-1.7 3.6-1.1 1.1-2.6 1.8-4.2 1.8-1.7 0-3.1-.7-4.2-1.8S3 15.7 3 14.1c0-1.7.7-3.1 1.8-4.2S7.4 8.1 9 8.1c1.7 0 3.1.7 4.2 1.8 1 1.1 1.7 2.5 1.7 4.2z" style="fill-rule:evenodd;clip-rule:evenodd" transform="translate(0 -1)"/>
</svg>
