<svg xmlns="http://www.w3.org/2000/svg" width="30.5" height="64.6" style="overflow:visible;enable-background:new 0 0 30.5 64.6" xml:space="preserve">
    <path d="M5.7 0h2.7c.2 0 .4.4.5.6C10 4.3 11 7.9 12.1 11.5l.3.9c.7-.1 1.4-.3 2.1-.3 1.5 0 3.1.1 4.6.2.4 0 .6 0 .9-.4 2.4-3.8 4.8-7.5 7.2-11.3.3-.4.6-.6 1.2-.6h2.1c-1.1 1.4-2.2 2.9-3.3 4.4-1.9 2.6-3.7 5.2-5.5 7.7-.1.2-.2.4-.4.6.9.5 1.8.9 2.6 1.4 1.7 1 1.7 1 1.2 2.9-.1.5-.3 1-.4 1.7-1.2-1.9-2.6-3.4-4.6-4.4-.1.2-.3.3-.4.5-.4.5-.7 1-1 1.5-3.5 5-3.3 4-4.9 11.4-.1.5-.1.9-.3 1.3-.5 1.3 0 2.1 1.1 3 .4-3 1.6-5.8 1.5-8.9h4.5c-.5 2.3-1.1 4.5-1.6 6.6-.4 1.8-.9 3.5-1.3 5.3-.1.3.1.7.2 1 .6.8 1.3 1.6 1.9 2.4 2.8 3.6 2.9 7.3.5 11.5-1.5 2.6-3.9 4.2-6.9 4.9-.4.1-.6.2-.7.6-.5 2.2-1.1 4.4-1.6 6.7-.2 1-.1 1.1.9 1.1 5.8.1 11.5-.7 17.1-1.9.2 0 .4-.1.8-.1-.7 1.1-1.3 2.2-1.9 3.2-.1.1-.3.1-.4.1H7.2c1.2-2.9 1.5-6.1 2.3-9.2-.8-.1-1.6-.2-2.4-.4-2.5-.6-4.7-1.8-6.7-3.5-.4-.3-.5-.7-.4-1.1.3-1.1.6-2.1.9-3.4.9 1.9 2 3.5 3.6 4.6 1.6 1.2 3.2 2 5.3 2.2.4-1.7.7-3.3 1.1-4.9.8-3.7 1.5-7.4 2.5-11.1.3-1.3-.3-1.9-1.2-2.7-.3 2.3-1.4 4.4-.8 6.7h-4c1-1.3 1-2.9 1.3-4.4.3-1.5.6-3.1.8-4.6.1-.4 0-.8-.3-1.1-.7-.7-1.3-1.4-1.9-2.1-4.8-4.8-3-11.2.7-14.5.2-.2.4-.4.6-.5.9-.4.9-1 .7-1.9-1-3.4-1.8-6.7-2.6-10-.3-.9-.7-1.7-1-2.6m7.4 53.6c2.9-.8 4.7-2.5 5.6-5.2 1-3.2-.1-6-2.2-8.7-1.1 4.7-2.2 9.2-3.4 13.9M10.3 27c1.3-3.9 1.2-7.7-.4-11.4-3.3 2.8-3.1 8.3.4 11.4m4.4-6.9c1.4-2.2 2.7-4.2 4-6.3-1.6-.8-4.5-.9-5.9 0 .6 2 1.2 4.1 1.9 6.3"/>
</svg>
