<svg xmlns="http://www.w3.org/2000/svg" width="76.5" height="29.9" style="overflow:visible;enable-background:new 0 0 76.5 29.9" xml:space="preserve">
    <path d="M10.9 1c5 0 9 2.9 10.3 7.3 2.1 7.4-3.5 14.2-11.2 13.6-4.8-.4-8.5-3.3-9.6-7.7C-1.4 7.1 3.6.9 10.9 1M4.2 11.4c0 1.8.3 3.6 1.1 5.3.6 1.3 1.4 2.4 2.6 3.1 2.7 1.7 6 .8 7.8-2.1 1.1-1.8 1.6-3.7 1.6-5.8.1-2.6-.4-5.1-1.9-7.3C14.3 3 12.8 2 10.8 2 8.3 2 6.7 3.3 5.6 5.4c-1.1 2-1.4 4-1.4 6M25.2 17.4c-1-.7-1.8-1.5-2.2-2.7-.7-2.5.8-5 3.6-5.9 1.3-.4 2.7-.4 4 0 .2.1.4.1.7.2v-.6c0-2.8 1.8-4.9 4.5-5.4 1.2-.2 2.3-.2 3.5.3.9.4 1.5 1 1.5 2 0 1.1-.7 1.9-1.7 1.9s-1.8-.8-1.8-1.8c0-.9-.2-1-1.1-1-1.8 0-3.3 1.5-3.5 3.4-.1 1.1 0 2.1.7 3 1.5 2 .7 5-1.5 6.4-1.1.7-2.3.9-3.6 1-1.1 0-2.1.2-3.2.3-.3 0-.6.2-.9.4-.5.3-.7.8-.6 1.4.1.6.6.8 1.1.8.9 0 1.9-.1 2.8-.2 1.1-.1 2.2-.3 3.2-.4.7 0 1.4 0 2 .1 2 .5 2.9 2.2 2.5 4.4-.5 2.1-1.8 3.5-3.9 4.3-2.2.8-4.4.7-6.6-.3-1-.5-1.6-1.2-1.8-2.3-.1-.4 0-.8.1-1.2.2-.5.7-.8 1.3-.7.6.1.9.5.9 1v.6c0 .9.4 1.6 1.3 1.9 1.8.5 3.5.4 5.1-.5.9-.5 1.5-1.4 1.6-2.4.1-1-.4-1.8-1.4-1.8-1.1-.1-2.2.1-3.2.2-.9.1-1.7.3-2.6.3-.7 0-1.4 0-2.1-.1-1.2-.2-2.1-1-2.3-2.2-.2-1.3 0-2.5 1.2-3.3.9-.5 1.7-.8 2.4-1.1m5.9-4.2c0-1-.2-2.1-1-3-.9-1.1-2.3-1.1-3.1 0-.4.6-.7 1.3-.8 1.9-.3 1.5-.2 3 .9 4.2.9 1.1 2.3 1 3.2-.1.6-.8.8-1.8.8-3M49.4 9.8V9h6.4v.7c-.4.1-.7.2-1 .2-.4.1-.6.4-.5.8.1.4.2.8.4 1.1.7 1.9 1.4 3.7 2.2 5.6.1.2.2.4.3.8.2-.3.3-.4.3-.6.8-2.2 1.7-4.4 2.5-6.6.3-.8.2-1-.7-1.2-.1 0-.3 0-.4-.1-.1-.1-.3-.3-.3-.5 0-.1.2-.3.4-.3h9.7s.1 0 .2.1v.7c-.3.1-.6.1-.9.2-.7.2-.9.4-.6 1.2.7 1.7 1.3 3.4 2 5.1.2.5.4 1 .7 1.7l.4-.8 2.4-5.7c.5-1.1.4-1.3-.8-1.5-.1 0-.3-.1-.5-.1V9h4.8v.7c-.1 0-.2.1-.4.1-.8.1-1.3.6-1.6 1.3-1.4 3.2-2.8 6.5-4.1 9.7-.8 1.8-1.6 3.7-2.4 5.5-.5 1.1-1.1 2.1-2.1 2.8-.7.5-1.4.7-2.2.6-.7-.1-1.2-.6-1.2-1.3 0-.7.6-1.2 1.3-1.2h.4c1.3.3 2.1-.4 2.6-1.5.5-1.2 1-2.3 1.5-3.5.1-.2 0-.5 0-.6-1.5-3.6-2.9-7.2-4.4-10.8-.2-.5-.5-.9-1.1-.9-.6 0-.9.4-1.1.9-1.4 3.3-2.7 6.7-4.1 10-.2.6-.5.9-1.2.8h-.5c-.5.1-.7-.1-.9-.6-1.3-3.2-2.6-6.3-3.8-9.5-.2-.9-.5-1.8-1.7-1.7"/>
    <path d="M40.9 8.4v11.2c0 .7.2.9.9.9h2.4c.5 0 .8-.2.8-.8V2.9c0-.4-.2-.7-.6-.8-.3-.1-.6-.1-.8-.3-.2-.1-.3-.2-.4-.4 0-.1.2-.3.3-.3 1.5-.4 3-.8 4.7-1.2v19.3c0 1.2 0 1.2 1.2 1.4.2 0 .3 0 .5.1v.8H36.1v-.7l.1-.1c1.4-.3 1.4-.3 1.4-1.7v-7.3c0-.7-.2-1.1-.9-1.2-.2 0-.4-.1-.6-.2-.1-.1-.3-.2-.2-.3 0-.1.1-.3.3-.3 1.5-.4 3-.8 4.7-1.3"/>
</svg>
