<!-- Generator: Adobe Illustrator 25.0.0, SVG Export Plug-In  -->
<svg version="1.1" xmlns="http://www.w3.org/2000/svg" xmlns:xlink="http://www.w3.org/1999/xlink" x="0px" y="0px" width="68.7px"
	 height="36.3px" viewBox="0 0 68.7 36.3" style="overflow:visible;enable-background:new 0 0 68.7 36.3;" xml:space="preserve">
<defs>
</defs>
<path d="M63.7,28.8c0,0,3.4-4.4,3.4-10.1c0-11.2-7.8-18.5-18.8-18.5c-6.3,0-11.7,3.1-15,7.6c-0.1-0.2-0.2-0.3-0.4-0.5
	C30.3,3.7,25.5,0,18.2,0C9.6,0,3,5.7,0.8,12.8c0,0.1,0,0.2-0.1,0.3v0C0.2,14.6,0,16.3,0,18c0,1.6,0.2,3.2,0.6,4.7
	c1.4,5.1,5,9.4,9.7,11.7c0,0,0.1,0,0.1,0.1c0,0,0,0,0.1,0c2.4,1.1,5.1,1.7,7.9,1.7c6,0,11.4-3,14.7-7.5c0.1-0.1,0.1-0.2,0.2-0.3
	c3.2,4.6,8.5,7.9,15,7.9c4.4,0,7.4-1.9,8-2.2l1.2,1.5h11.2L63.7,28.8z M18.3,26.2c-3.9,0-8.3-3.1-8.4-8c-0.1-5.1,4.3-8.5,8.4-8.3
	c3.3,0.1,4.6,1.1,6.4,2.9h5.4h0.6v0c-0.3,0.8-0.5,1.6-0.6,2.4H19.6v8.5h4.6C24.3,23.9,21.9,26.2,18.3,26.2 M57,20.6L56,19.3H44.7
	l4.6,6.7c-4.8,0.9-9.3-3.1-9.3-7.7c0.1-4.8,3.9-8.3,8.5-8.3C53.6,10,58.6,15.4,57,20.6"/>
</svg>
