<svg xmlns="http://www.w3.org/2000/svg" width="88" height="46.4" style="overflow:visible;enable-background:new 0 0 88 46.4" xml:space="preserve">
    <path d="M83.5 5.5c-27.5 8.1-36 7-37.3 26.4h-9.4c-.2-3.1-5.1-19-36.8-19.5l34.3-9.8c-14.6 9.7-4.8 11.9 15 7.9C62.4 7.9 85.7.7 88 0l-4.5 5.5zM40.7 24.1c1.2-3.1 3.4-6.4 5.3-8-3.1.7-8.4 1.4-12.1 1.4 2.5 1.5 5.9 4.9 6.8 6.6zm-20 22.3 9.1-11v8.3c0 1.5-1.2 2.7-2.7 2.7h-6.4zM46.2 39c.3-.4.5-.9.5-1.4v-1.9h-9.9v2.2h5.4l-4.8 5.3c-.3.4-.5.8-.5 1.3v2h9.9v-2.1h-5.4l4.8-5.4zm29.5-1.2c.6 0 1.1.5 1.1 1.1v4.3c0 .6-.5 1.1-1.1 1.1h-1.6c-.6 0-1.1-.5-1.1-1.1v-4.3c0-.6.5-1.1 1.1-1.1h1.6zm-4.6-2.2c-1.2 0-2.2 1-2.2 2.2v6.4c0 1.2 1 2.2 2.2 2.2h7.7c1.2 0 2.2-1 2.2-2.2v-6.4c0-1.2-1-2.2-2.2-2.2h-7.7zm-39.7 0h4.1v8.6c0 1.2-.9 2.2-2.1 2.2h-2V35.6zm18.9 10.8c-1.2 0-2.2-1-2.2-2.2v-8.6h4.1v7.5c0 .6.5 1.1 1.1 1.1h1.3c.6 0 1.1-.5 1.1-1.1v-7.6h9.6c1.2 0 2.1 1 2.1 2.2v8.6h-4.1v-7.5c0-.6-.5-1.1-1.1-1.1h-2.4v6.4c0 1.2-.9 2.2-2.1 2.2h-7.4v.1zM21.6 33.7 11.1 46.4h6l7.9-9.6c.6-.7 1.5-1.2 2.5-1.2h2.3v-3.7h-4.4c-1.6 0-2.9.7-3.8 1.8zm-9.7 0L1.4 46.4h6l8-9.6c.6-.7 1.5-1.2 2.5-1.2H20v-3.7h-4.2c-1.6 0-3 .7-3.9 1.8zm70.7 10.6h.4c.1 0 .3.1.3.3 0 .1-.1.3-.3.3h-.4v-.6zm-.3 1.5h.3v-.7h.4c.1 0 .2.1.3.3v.4h.3c-.1 0-.1-.3-.1-.5 0-.3-.2-.3-.3-.3.1 0 .3-.1.3-.4 0-.3-.2-.5-.5-.5h-.7v1.7zm1.9-.9c0 .7-.6 1.3-1.3 1.3-.7 0-1.3-.6-1.3-1.3 0-.7.6-1.3 1.3-1.3.8 0 1.3.6 1.3 1.3zm-2.7 0c0 .8.7 1.5 1.5 1.5s1.5-.6 1.5-1.5c0-.8-.6-1.5-1.5-1.5-.8.1-1.5.8-1.5 1.5z" style="fill-rule:evenodd;clip-rule:evenodd"/>
</svg>
