<svg xmlns="http://www.w3.org/2000/svg" width="84.5" height="42.1" style="overflow:visible;enable-background:new 0 0 84.5 42.1" xml:space="preserve">
    <style>
        .st0{fill-rule:evenodd;clip-rule:evenodd}
    </style>
    <path class="st0" d="M45.5.1c-.3 0-.5 1.1-1.1 1.6-.4.4-.9.4-1.1.8-.1.2-.1.5-.2.8-.2.6-1 .6-1 1.3 0 .7.6.8 1.2 1.3.4.4.5.7 1 .8.4.2 1.1-.3 1.7-.2.5.1 1 .3 1.1.8.1.5 0 1.2-.6 1.1-.2 0-1.1-.3-2.2-.2-1.3.1-2.8.6-2.9 2-.1.8.9 1.8 1.9 1.6.7-.1.4-.9.7-1.3.5-.5 3.2 1.7 5.7 1.7 1.1 0 1.8-.3 2.6-1.1.1-.1.2-.2.3-.2.1 0 .3.1.4.2 2 1.6 3.6 4.9 11 4.9 1 0 2.2.5 3.2 1.4.9.8 1.4 2.1 1.9 3.3.7 1.9 2.1 3.7 4.1 5.8.1.1 1.8 1.4 1.9 1.5 0 0 .1.3.1.5 0 1.2-.2 4.8 2.4 5 .7 0 .5-.4.5-.7 0-.6-.1-1.2.2-1.9.5-.9-1-1.3-.9-3.2 0-1.4-1.2-1.2-1.8-2.3-.3-.6-.7-1-.6-1.7.1-4.3-.9-7.1-1.4-7.8-.4-.5-.7-.7-.4-1 2.2-1.5 2.7-2.8 2.7-2.8 1.2-2.8 2.3-5.3 3.7-6.5.3-.2 1.1-.8 1.5-1 1.4-.6 2.1-1 2.5-1.4.6-.6 1.1-1.9.5-2.7-.8-1-2.1-.2-2.6.1-4.1 2.4-4.7 6.7-6.1 9.2-1.1 2-3 3.4-4.6 3.5-1.2.1-2.6-.2-3.9-.7-3.2-1.4-5-3.2-5.4-3.6-.9-.7-7.6-7.3-13-7.5 0 0-.7-1.4-.8-1.4-.4-.1-.8.8-1.1.9-.3.1-.8-.9-1.1-.9zM21.6 39.6c-.5 0-.9-.4-.9-1v-17H15v18.7c0 .9.7 1.7 1.7 1.7h9.8c.9 0 1.7-.7 1.7-1.7V21.6h-5.6v17c-.1.5-.5 1-1 1zm18.7-18h-8.5c-1 0-1.8.8-1.8 1.8V42h5.6V25c0-.5.4-.9.9-.9s.9.4 1 .9v17h5.6V25c0-.5.4-.9 1-.9.5 0 .9.4.9.9v17h5.6V23.4c0-1-.8-1.8-1.8-1.8h-8.5zm-29 15.3H5.6V42H0V21.6h11.3c1 0 1.8.8 1.8 1.8V35c0 1.1-.8 1.9-1.8 1.9zM7.5 25c0-.6-.5-1-.9-1h-1v10.3h1c.5 0 1-.4.9-1V25zm64.9 14.6c0 1.4-1.1 2.5-2.5 2.5s-2.5-1.1-2.5-2.5 1.1-2.5 2.5-2.5 2.5 1.1 2.5 2.5zm-2.6-2.1c-1.1 0-2.1 1-2.1 2.2 0 1.2.9 2.1 2.1 2.1 1.2 0 2.1-1 2.1-2.1.1-1.3-.9-2.2-2.1-2.2z"/>
    <path class="st0" d="M71.1 41.1h-.7l-.9-1.1v1.1H69v-2.9h.6c.8 0 1.2.3 1.2.9 0 .4-.2.7-.6.8l.9 1.2zm-1.5-1.7c.4 0 .6-.1.6-.4 0-.2-.2-.4-.6-.4h-.1l.1.8zM60 42v-5.1h-1.9V42h-5.6V23.4c0-1 .8-1.8 1.8-1.8h9.5c1 0 1.8.8 1.8 1.8V42H60zm0-7.6V25c0-.5-.4-.9-1-.9-.5 0-.9.4-.9.9v9.4H60z"/>
</svg>
